<?xml version="1.0" encoding="utf-8"?>
<!-- Generator: Adobe Illustrator 24.2.0, SVG Export Plug-In . SVG Version: 6.00 Build 0)  -->
<svg version="1.1" id="Layer_1" xmlns="http://www.w3.org/2000/svg" xmlns:xlink="http://www.w3.org/1999/xlink" x="0px" y="0px"
	 viewBox="0 0 90 90" style="enable-background:new 0 0 90 90;" xml:space="preserve">
<style type="text/css">
	.st0{fill:none;}
</style>
<g>
	<path d="M83.1,21.5l-0.2-0.1c-0.3-0.7-1.7-3.8-5.3-6.8c-4.6-3.9-12.5-7.8-24.3-7.8c-8,0.1-27,2.4-39.7,20.6
		C3.1,42.6,6.4,58.8,12.9,68c6.8,9.7,18.4,15.1,31.1,15.2c10.6,0.1,21.6-4.1,28.4-11.8c0.2-0.2,3.2-3.7,3-3.8l-1.9-1.9
		c0,0-7.9,9.7-18.6,8.7c-12.3-1.3-19.2-14.6-16.1-31.5c2-10.7,9.8-21.9,19.1-25.1c0,0,6.2-2.8,12.7,0.1c1,0.5,1.6,1,2,1.4
		c-3.7,1-9.4,3.4-13.5,9.7c-6.2,10.5-0.8,19.3,8.2,20.1c6.8,0.6,10.6-2.8,10.6-2.8l0.8-2.5c0,0-5.3-0.4-5.6-5
		C72.5,29.5,83.1,21.4,83.1,21.5z"/>
	<rect class="st0" width="90" height="90"/>
</g>
</svg>
